# xmcd
#
# Track frame offsets:
# 150
# 20637
# 38557
# 56780
# 75120
# 95932
# 116037
# 135030
# 155477
# 175460
#
# Disc length: 2601 seconds
#
#
# Revision: 2
# Processed by: cddbd v1.5.2PL0 Copyright (c) Steve Scherf et al.
# Submitted via: FreeRIP 2.30 
#
DISCID=790a270a
DTITLE=张信哲 - 做你的男人
DYEAR=2006
DGENRE=Pop
TTITLE0=做你的男人
TTITLE1=说谎
TTITLE2=后悔的借口
TTITLE3=忘了我
TTITLE4=曾经
TTITLE5=不由自主
TTITLE6=远方
TTITLE7=上海姑娘
TTITLE8=你应该飞的
TTITLE9=晴天
EXTD=
EXTT0=
EXTT1=
EXTT2=
EXTT3=
EXTT4=
EXTT5=
EXTT6=
EXTT7=
EXTT8=
EXTT9=
PLAYORDER=
